<svg xmlns="http://www.w3.org/2000/svg" width="115" height="140" viewBox="0 0 115 140"><rect width="100%" height="100%" fill="#DDDDDD"/><path fill="#999999" d="M27.005 74.305h2.08v1.48h-6.4v-1.48h2.35v-6.74q0-.4.02-.83l-1.66 1.39q-.15.12-.29.14-.14.03-.26.01-.13-.03-.22-.09-.1-.06-.15-.13l-.62-.85 3.53-3h1.62v10.1Zm9.28 0h2.08v1.48h-6.4v-1.48h2.35v-6.74q0-.4.02-.83l-1.66 1.39q-.15.12-.29.14-.14.03-.26.01-.13-.03-.22-.09-.1-.06-.15-.13l-.62-.85 3.53-3h1.62v10.1Zm6.74-8.3-.41 2.41q.38-.08.74-.11.35-.04.68-.04.91 0 1.6.27.7.27 1.17.75t.71 1.13q.24.64.24 1.39 0 .92-.32 1.68-.32.76-.9 1.3-.58.54-1.36.83-.79.3-1.72.3-.54 0-1.03-.11-.49-.12-.92-.3-.43-.19-.79-.44-.36-.24-.65-.51l.61-.84q.19-.27.5-.27.2 0 .41.12.21.13.47.28.27.16.64.28.36.13.87.13.55 0 .96-.17.42-.18.69-.5.28-.31.42-.75.14-.43.14-.95 0-.94-.55-1.47t-1.62-.53q-.82 0-1.69.3l-1.23-.35.96-5.62h5.71v.84q0 .43-.26.69-.26.26-.9.26h-3.17Zm17.93 7.13-1.05 1.03-2.71-2.71-2.74 2.73-1.05-1.03 2.74-2.75-2.61-2.6 1.04-1.04 2.61 2.6 2.59-2.59 1.06 1.04-2.6 2.6 2.72 2.72Zm10.95 1.17h2.08v1.48h-6.4v-1.48h2.34v-6.74q0-.4.03-.83l-1.67 1.39q-.14.12-.28.14-.14.03-.27.01-.12-.03-.22-.09-.09-.06-.14-.13l-.62-.85 3.52-3h1.63v10.1Zm5.25-2.88h3.52v-3.78q0-.54.08-1.19l-3.6 4.97Zm5.24 0h1.46v1.14q0 .16-.1.28-.11.12-.3.12h-1.06v2.82h-1.72v-2.82h-4.88q-.2 0-.35-.13-.15-.12-.19-.31l-.21-1 5.48-7.32h1.87v7.22Zm10.75-1.42q0 1.51-.33 2.62-.32 1.12-.89 1.85-.57.73-1.35 1.08-.78.36-1.69.36-.9 0-1.67-.36-.78-.35-1.34-1.08-.57-.73-.89-1.85-.32-1.11-.32-2.62 0-1.52.32-2.64.32-1.11.89-1.84.56-.72 1.34-1.08.77-.36 1.67-.36.91 0 1.69.36.78.36 1.35 1.08.57.73.89 1.84.33 1.12.33 2.64Zm-2.04 0q0-1.26-.19-2.08-.18-.83-.49-1.32-.31-.48-.71-.68-.4-.2-.83-.2-.42 0-.82.2-.39.2-.7.68-.3.49-.48 1.32-.18.82-.18 2.08 0 1.25.18 2.08.18.82.48 1.31.31.49.7.68.4.2.82.2.43 0 .83-.2.4-.19.71-.68.31-.49.49-1.31.19-.83.19-2.08Z"/></svg>