<svg xmlns="http://www.w3.org/2000/svg" width="74" height="74" viewBox="0 0 74 74"><rect width="100%" height="100%" fill="#DDDDDD"/><path fill="#999999" d="M13.805 31.945h6.99v.75q0 .33-.07.54-.07.21-.14.35l-3.83 7.89q-.12.25-.34.42-.22.17-.58.17h-1.25l3.91-7.74q.13-.23.26-.43.13-.2.29-.38h-4.84q-.16 0-.28-.12-.12-.12-.12-.28v-1.17Zm9.37 6.31h3.08v-3.32q0-.46.06-1.03l-3.14 4.35Zm4.59 0h1.27v1q0 .14-.09.24-.09.1-.26.1h-.92v2.47h-1.51v-2.47h-4.27q-.17 0-.31-.11-.13-.11-.16-.27l-.19-.87 4.8-6.41h1.64v6.32Zm12.39 1.49-.91.91-2.38-2.38-2.39 2.39-.92-.9 2.4-2.4-2.29-2.29.91-.91 2.29 2.29 2.26-2.27.93.91-2.28 2.27 2.38 2.38Zm4.81-7.8h7v.75q0 .33-.07.54-.07.21-.14.35l-3.84 7.89q-.12.25-.34.42-.21.17-.58.17h-1.25l3.91-7.74q.14-.23.27-.43.12-.2.29-.38h-4.85q-.16 0-.28-.12-.12-.12-.12-.28v-1.17Zm9.38 6.31h3.08v-3.32q0-.46.06-1.03l-3.14 4.35Zm4.58 0h1.27v1q0 .14-.09.24-.09.1-.26.1h-.92v2.47h-1.5v-2.47h-4.27q-.18 0-.31-.11-.14-.11-.17-.27l-.18-.87 4.79-6.41h1.64v6.32Z"/></svg>